{
 "cells": [
  {
   "attachments": {},
   "cell_type": "markdown",
   "metadata": {},
   "source": [
    "Compress Video"
   ]
  },
  {
   "cell_type": "code",
   "execution_count": 1,
   "metadata": {},
   "outputs": [],
   "source": [
    "import os\n",
    "import ffmpeg\n",
    "\n",
    "def compress_video(video_full_path, size_upper_bound, two_pass=True, filename_suffix='cps_'):\n",
    "    \"\"\"\n",
    "    Compress video file to max-supported size.\n",
    "    :param video_full_path: the video you want to compress.\n",
    "    :param size_upper_bound: Max video size in KB.\n",
    "    :param two_pass: Set to True to enable two-pass calculation.\n",
    "    :param filename_suffix: Add a suffix for new video.\n",
    "    :return: out_put_name or error\n",
    "    \"\"\"\n",
    "    filename, extension = os.path.splitext(video_full_path)\n",
    "    extension = '.mp4'\n",
    "    output_file_name = filename + filename_suffix + extension\n",
    "\n",
    "    # Adjust them to meet your minimum requirements (in bps), or maybe this function will refuse your video!\n",
    "    total_bitrate_lower_bound = 11000\n",
    "    min_audio_bitrate = 32000\n",
    "    max_audio_bitrate = 256000\n",
    "    min_video_bitrate = 100000\n",
    "\n",
    "    try:\n",
    "        # Bitrate reference: https://en.wikipedia.org/wiki/Bit_rate#Encoding_bit_rate\n",
    "        probe = ffmpeg.probe(video_full_path)\n",
    "        # Video duration, in s.\n",
    "        duration = float(probe['format']['duration'])\n",
    "        # Audio bitrate, in bps.\n",
    "        audio_bitrate = float(next((s for s in probe['streams'] if s['codec_type'] == 'audio'), None)['bit_rate'])\n",
    "        # Target total bitrate, in bps.\n",
    "        target_total_bitrate = (size_upper_bound * 1024 * 8) / (1.073741824 * duration)\n",
    "        if target_total_bitrate < total_bitrate_lower_bound:\n",
    "            print('Bitrate is extremely low! Stop compress!')\n",
    "            return False\n",
    "\n",
    "        # Best min size, in kB.\n",
    "        best_min_size = (min_audio_bitrate + min_video_bitrate) * (1.073741824 * duration) / (8 * 1024)\n",
    "        if size_upper_bound < best_min_size:\n",
    "            print('Quality not good! Recommended minimum size:', '{:,}'.format(int(best_min_size)), 'KB.')\n",
    "            # return False\n",
    "\n",
    "        # Target audio bitrate, in bps.\n",
    "        audio_bitrate = audio_bitrate\n",
    "\n",
    "        # target audio bitrate, in bps\n",
    "        if 10 * audio_bitrate > target_total_bitrate:\n",
    "            audio_bitrate = target_total_bitrate / 10\n",
    "            if audio_bitrate < min_audio_bitrate < target_total_bitrate:\n",
    "                audio_bitrate = min_audio_bitrate\n",
    "            elif audio_bitrate > max_audio_bitrate:\n",
    "                audio_bitrate = max_audio_bitrate\n",
    "\n",
    "        # Target video bitrate, in bps.\n",
    "        video_bitrate = target_total_bitrate - audio_bitrate\n",
    "        if video_bitrate < 1000:\n",
    "            print('Bitrate {} is extremely low! Stop compress.'.format(video_bitrate))\n",
    "            return False\n",
    "\n",
    "        i = ffmpeg.input(video_full_path)\n",
    "        if two_pass:\n",
    "            ffmpeg.output(i, os.devnull,\n",
    "                          **{'c:v': 'libx264', 'b:v': video_bitrate, 'pass': 1, 'f': 'mp4'}\n",
    "                          ).overwrite_output().run()\n",
    "            ffmpeg.output(i, output_file_name,\n",
    "                          **{'c:v': 'libx264', 'b:v': video_bitrate, 'pass': 2, 'c:a': 'aac', 'b:a': audio_bitrate}\n",
    "                          ).overwrite_output().run()\n",
    "        else:\n",
    "            ffmpeg.output(i, output_file_name,\n",
    "                          **{'c:v': 'libx264', 'b:v': video_bitrate, 'c:a': 'aac', 'b:a': audio_bitrate}\n",
    "                          ).overwrite_output().run()\n",
    "\n",
    "        if os.path.getsize(output_file_name) <= size_upper_bound * 1024:\n",
    "            return output_file_name\n",
    "        elif os.path.getsize(output_file_name) < os.path.getsize(video_full_path):  # Do it again\n",
    "            return compress_video(output_file_name, size_upper_bound)\n",
    "        else:\n",
    "            return False\n",
    "    except FileNotFoundError as e:\n",
    "        print('You do not have ffmpeg installed!', e)\n",
    "        print('You can install ffmpeg by reading https://github.com/kkroening/ffmpeg-python/issues/251')\n",
    "        return False"
   ]
  },
  {
   "cell_type": "code",
   "execution_count": 3,
   "metadata": {},
   "outputs": [
    {
     "name": "stderr",
     "output_type": "stream",
     "text": [
      "ffmpeg version 7.0.2 Copyright (c) 2000-2024 the FFmpeg developers\n",
      "  built with Apple clang version 15.0.0 (clang-1500.3.9.4)\n",
      "  configuration: --prefix=/opt/homebrew/Cellar/ffmpeg/7.0.2 --enable-shared --enable-pthreads --enable-version3 --cc=clang --host-cflags= --host-ldflags='-Wl,-ld_classic' --enable-ffplay --enable-gnutls --enable-gpl --enable-libaom --enable-libaribb24 --enable-libbluray --enable-libdav1d --enable-libharfbuzz --enable-libjxl --enable-libmp3lame --enable-libopus --enable-librav1e --enable-librist --enable-librubberband --enable-libsnappy --enable-libsrt --enable-libssh --enable-libsvtav1 --enable-libtesseract --enable-libtheora --enable-libvidstab --enable-libvmaf --enable-libvorbis --enable-libvpx --enable-libwebp --enable-libx264 --enable-libx265 --enable-libxml2 --enable-libxvid --enable-lzma --enable-libfontconfig --enable-libfreetype --enable-frei0r --enable-libass --enable-libopencore-amrnb --enable-libopencore-amrwb --enable-libopenjpeg --enable-libspeex --enable-libsoxr --enable-libzmq --enable-libzimg --disable-libjack --disable-indev=jack --enable-videotoolbox --enable-audiotoolbox --enable-neon\n",
      "  libavutil      59.  8.100 / 59.  8.100\n",
      "  libavcodec     61.  3.100 / 61.  3.100\n",
      "  libavformat    61.  1.100 / 61.  1.100\n",
      "  libavdevice    61.  1.100 / 61.  1.100\n",
      "  libavfilter    10.  1.100 / 10.  1.100\n",
      "  libswscale      8.  1.100 /  8.  1.100\n",
      "  libswresample   5.  1.100 /  5.  1.100\n",
      "  libpostproc    58.  1.100 / 58.  1.100\n",
      "Input #0, mov,mp4,m4a,3gp,3g2,mj2, from '../images/video.mp4':\n",
      "  Metadata:\n",
      "    major_brand     : mp42\n",
      "    minor_version   : 0\n",
      "    compatible_brands: mp41isom\n",
      "    creation_time   : 2024-08-12T05:24:32.000000Z\n",
      "  Duration: 00:03:33.37, start: 0.000000, bitrate: 4253 kb/s\n",
      "  Stream #0:0[0x1](und): Video: h264 (Constrained Baseline) (avc1 / 0x31637661), yuv420p(progressive), 1904x856 [SAR 1:1 DAR 238:107], 4122 kb/s, 10 fps, 10 tbr, 10k tbn (default)\n",
      "      Metadata:\n",
      "        creation_time   : 2024-08-12T05:24:32.000000Z\n",
      "        handler_name    : VideoHandler\n",
      "        vendor_id       : [0][0][0][0]\n",
      "        encoder         : AVC Coding\n",
      "  Stream #0:1[0x2](und): Audio: aac (LC) (mp4a / 0x6134706D), 44100 Hz, mono, fltp, 129 kb/s (default)\n",
      "      Metadata:\n",
      "        creation_time   : 2024-08-12T05:24:32.000000Z\n",
      "        handler_name    : SoundHandler\n",
      "        vendor_id       : [0][0][0][0]\n",
      "Stream mapping:\n",
      "  Stream #0:0 -> #0:0 (h264 (native) -> h264 (libx264))\n",
      "  Stream #0:1 -> #0:1 (aac (native) -> aac (native))\n",
      "Press [q] to stop, [?] for help\n",
      "[libx264 @ 0x142e36730] using SAR=1/1\n",
      "[libx264 @ 0x142e36730] using cpu capabilities: ARMv8 NEON\n",
      "[libx264 @ 0x142e36730] profile Main, level 4.0, 4:2:0, 8-bit\n",
      "[libx264 @ 0x142e36730] 264 - core 164 r3108 31e19f9 - H.264/MPEG-4 AVC codec - Copyleft 2003-2023 - http://www.videolan.org/x264.html - options: cabac=1 ref=1 deblock=1:0:0 analyse=0x1:0 me=dia subme=2 psy=1 psy_rd=1.00:0.00 mixed_ref=0 me_range=16 chroma_me=1 trellis=0 8x8dct=0 cqm=0 deadzone=21,11 fast_pskip=1 chroma_qp_offset=0 threads=24 lookahead_threads=6 sliced_threads=0 nr=0 decimate=1 interlaced=0 bluray_compat=0 constrained_intra=0 bframes=3 b_pyramid=2 b_adapt=1 b_bias=0 direct=1 weightb=1 open_gop=0 weightp=2 keyint=250 keyint_min=10 scenecut=40 intra_refresh=0 rc_lookahead=40 rc=abr mbtree=1 bitrate=191 ratetol=1.0 qcomp=0.60 qpmin=0 qpmax=69 qpstep=4 ip_ratio=1.40 aq=1:1.00\n",
      "Output #0, mp4, to '/dev/null':\n",
      "  Metadata:\n",
      "    major_brand     : mp42\n",
      "    minor_version   : 0\n",
      "    compatible_brands: mp41isom\n",
      "    encoder         : Lavf61.1.100\n",
      "  Stream #0:0(und): Video: h264 (avc1 / 0x31637661), yuv420p(progressive), 1904x856 [SAR 1:1 DAR 238:107], q=2-31, 191 kb/s, 10 fps, 10240 tbn (default)\n",
      "      Metadata:\n",
      "        creation_time   : 2024-08-12T05:24:32.000000Z\n",
      "        handler_name    : VideoHandler\n",
      "        vendor_id       : [0][0][0][0]\n",
      "        encoder         : Lavc61.3.100 libx264\n",
      "      Side data:\n",
      "        cpb: bitrate max/min/avg: 0/0/191000 buffer size: 0 vbv_delay: N/A\n",
      "  Stream #0:1(und): Audio: aac (LC) (mp4a / 0x6134706D), 44100 Hz, mono, fltp, 69 kb/s (default)\n",
      "      Metadata:\n",
      "        creation_time   : 2024-08-12T05:24:32.000000Z\n",
      "        handler_name    : SoundHandler\n",
      "        vendor_id       : [0][0][0][0]\n",
      "        encoder         : Lavc61.3.100 aac\n",
      "[out#0/mp4 @ 0x142e3af70] video:5413KiB audio:1813KiB subtitle:0KiB other streams:0KiB global headers:0KiB muxing overhead: 1.601232%\n",
      "frame= 2133 fps=1156 q=-1.0 Lsize=    7341KiB time=00:03:33.10 bitrate= 282.2kbits/s speed= 115x    \n",
      "[libx264 @ 0x142e36730] frame I:38    Avg QP:16.33  size: 56791\n",
      "[libx264 @ 0x142e36730] frame P:571   Avg QP:22.01  size:  4530\n",
      "[libx264 @ 0x142e36730] frame B:1524  Avg QP:22.11  size:   523\n",
      "[libx264 @ 0x142e36730] consecutive B-frames:  3.8%  1.9%  3.2% 91.1%\n",
      "[libx264 @ 0x142e36730] mb I  I16..4: 83.8%  0.0% 16.2%\n",
      "[libx264 @ 0x142e36730] mb P  I16..4:  2.8%  0.0%  0.0%  P16..4:  1.5%  0.0%  0.0%  0.0%  0.0%    skip:95.7%\n",
      "[libx264 @ 0x142e36730] mb B  I16..4:  0.2%  0.0%  0.0%  B16..8:  0.7%  0.0%  0.0%  direct: 0.1%  skip:99.1%  L0:39.7% L1:55.3% BI: 5.0%\n",
      "[libx264 @ 0x142e36730] final ratefactor: 32.59\n",
      "[libx264 @ 0x142e36730] coded y,uvDC,uvAC intra: 23.7% 18.7% 18.1% inter: 0.3% 0.1% 0.1%\n",
      "[libx264 @ 0x142e36730] i16 v,h,dc,p: 77% 16%  6%  2%\n",
      "[libx264 @ 0x142e36730] i4 v,h,dc,ddl,ddr,vr,hd,vl,hu: 40% 20% 19%  1%  6%  3%  3%  3%  4%\n",
      "[libx264 @ 0x142e36730] i8c dc,h,v,p: 87%  5%  8%  0%\n",
      "[libx264 @ 0x142e36730] Weighted P-Frames: Y:0.0% UV:0.0%\n",
      "[libx264 @ 0x142e36730] kb/s:207.86\n",
      "[aac @ 0x142ebe9b0] Qavg: 497.690\n",
      "ffmpeg version 7.0.2 Copyright (c) 2000-2024 the FFmpeg developers\n",
      "  built with Apple clang version 15.0.0 (clang-1500.3.9.4)\n",
      "  configuration: --prefix=/opt/homebrew/Cellar/ffmpeg/7.0.2 --enable-shared --enable-pthreads --enable-version3 --cc=clang --host-cflags= --host-ldflags='-Wl,-ld_classic' --enable-ffplay --enable-gnutls --enable-gpl --enable-libaom --enable-libaribb24 --enable-libbluray --enable-libdav1d --enable-libharfbuzz --enable-libjxl --enable-libmp3lame --enable-libopus --enable-librav1e --enable-librist --enable-librubberband --enable-libsnappy --enable-libsrt --enable-libssh --enable-libsvtav1 --enable-libtesseract --enable-libtheora --enable-libvidstab --enable-libvmaf --enable-libvorbis --enable-libvpx --enable-libwebp --enable-libx264 --enable-libx265 --enable-libxml2 --enable-libxvid --enable-lzma --enable-libfontconfig --enable-libfreetype --enable-frei0r --enable-libass --enable-libopencore-amrnb --enable-libopencore-amrwb --enable-libopenjpeg --enable-libspeex --enable-libsoxr --enable-libzmq --enable-libzimg --disable-libjack --disable-indev=jack --enable-videotoolbox --enable-audiotoolbox --enable-neon\n",
      "  libavutil      59.  8.100 / 59.  8.100\n",
      "  libavcodec     61.  3.100 / 61.  3.100\n",
      "  libavformat    61.  1.100 / 61.  1.100\n",
      "  libavdevice    61.  1.100 / 61.  1.100\n",
      "  libavfilter    10.  1.100 / 10.  1.100\n",
      "  libswscale      8.  1.100 /  8.  1.100\n",
      "  libswresample   5.  1.100 /  5.  1.100\n",
      "  libpostproc    58.  1.100 / 58.  1.100\n",
      "Input #0, mov,mp4,m4a,3gp,3g2,mj2, from '../images/video.mp4':\n",
      "  Metadata:\n",
      "    major_brand     : mp42\n",
      "    minor_version   : 0\n",
      "    compatible_brands: mp41isom\n",
      "    creation_time   : 2024-08-12T05:24:32.000000Z\n",
      "  Duration: 00:03:33.37, start: 0.000000, bitrate: 4253 kb/s\n",
      "  Stream #0:0[0x1](und): Video: h264 (Constrained Baseline) (avc1 / 0x31637661), yuv420p(progressive), 1904x856 [SAR 1:1 DAR 238:107], 4122 kb/s, 10 fps, 10 tbr, 10k tbn (default)\n",
      "      Metadata:\n",
      "        creation_time   : 2024-08-12T05:24:32.000000Z\n",
      "        handler_name    : VideoHandler\n",
      "        vendor_id       : [0][0][0][0]\n",
      "        encoder         : AVC Coding\n",
      "  Stream #0:1[0x2](und): Audio: aac (LC) (mp4a / 0x6134706D), 44100 Hz, mono, fltp, 129 kb/s (default)\n",
      "      Metadata:\n",
      "        creation_time   : 2024-08-12T05:24:32.000000Z\n",
      "        handler_name    : SoundHandler\n",
      "        vendor_id       : [0][0][0][0]\n",
      "Stream mapping:\n",
      "  Stream #0:0 -> #0:0 (h264 (native) -> h264 (libx264))\n",
      "  Stream #0:1 -> #0:1 (aac (native) -> aac (native))\n",
      "Press [q] to stop, [?] for help\n",
      "[libx264 @ 0x122010a50] using SAR=1/1\n",
      "[libx264 @ 0x122010a50] using cpu capabilities: ARMv8 NEON\n",
      "[libx264 @ 0x122010a50] profile High, level 4.0, 4:2:0, 8-bit\n",
      "[libx264 @ 0x122010a50] 264 - core 164 r3108 31e19f9 - H.264/MPEG-4 AVC codec - Copyleft 2003-2023 - http://www.videolan.org/x264.html - options: cabac=1 ref=3 deblock=1:0:0 analyse=0x3:0x113 me=hex subme=7 psy=1 psy_rd=1.00:0.00 mixed_ref=1 me_range=16 chroma_me=1 trellis=1 8x8dct=1 cqm=0 deadzone=21,11 fast_pskip=1 chroma_qp_offset=-2 threads=24 lookahead_threads=4 sliced_threads=0 nr=0 decimate=1 interlaced=0 bluray_compat=0 constrained_intra=0 bframes=3 b_pyramid=2 b_adapt=1 b_bias=0 direct=1 weightb=1 open_gop=0 weightp=2 keyint=250 keyint_min=10 scenecut=40 intra_refresh=0 rc_lookahead=40 rc=2pass mbtree=1 bitrate=191 ratetol=1.0 qcomp=0.60 qpmin=0 qpmax=69 qpstep=4 cplxblur=20.0 qblur=0.5 ip_ratio=1.40 aq=1:1.00\n",
      "Output #0, mp4, to '../images/videocps_.mp4':\n",
      "  Metadata:\n",
      "    major_brand     : mp42\n",
      "    minor_version   : 0\n",
      "    compatible_brands: mp41isom\n",
      "    encoder         : Lavf61.1.100\n",
      "  Stream #0:0(und): Video: h264 (avc1 / 0x31637661), yuv420p(progressive), 1904x856 [SAR 1:1 DAR 238:107], q=2-31, 191 kb/s, 10 fps, 10240 tbn (default)\n",
      "      Metadata:\n",
      "        creation_time   : 2024-08-12T05:24:32.000000Z\n",
      "        handler_name    : VideoHandler\n",
      "        vendor_id       : [0][0][0][0]\n",
      "        encoder         : Lavc61.3.100 libx264\n",
      "      Side data:\n",
      "        cpb: bitrate max/min/avg: 0/0/191000 buffer size: 0 vbv_delay: N/A\n",
      "  Stream #0:1(und): Audio: aac (LC) (mp4a / 0x6134706D), 44100 Hz, mono, fltp, 32 kb/s (default)\n",
      "      Metadata:\n",
      "        creation_time   : 2024-08-12T05:24:32.000000Z\n",
      "        handler_name    : SoundHandler\n",
      "        vendor_id       : [0][0][0][0]\n",
      "        encoder         : Lavc61.3.100 aac\n",
      "frame= 1794 fps=1188 q=31.0 size=    4096KiB time=00:02:59.20 bitrate= 187.2kbits/s speed= 119x    \r"
     ]
    },
    {
     "name": "stdout",
     "output_type": "stream",
     "text": [
      "../images/videocps_.mp4\n"
     ]
    },
    {
     "name": "stderr",
     "output_type": "stream",
     "text": [
      "[out#0/mp4 @ 0x122005230] video:4926KiB audio:847KiB subtitle:0KiB other streams:0KiB global headers:0KiB muxing overhead: 2.002261%\n",
      "frame= 2133 fps=1164 q=-1.0 Lsize=    5889KiB time=00:03:33.10 bitrate= 226.4kbits/s speed= 116x    \n",
      "[libx264 @ 0x122010a50] frame I:38    Avg QP:21.52  size: 53073\n",
      "[libx264 @ 0x122010a50] frame P:571   Avg QP:21.17  size:  4159\n",
      "[libx264 @ 0x122010a50] frame B:1524  Avg QP:21.59  size:   428\n",
      "[libx264 @ 0x122010a50] consecutive B-frames:  3.8%  1.9%  3.2% 91.1%\n",
      "[libx264 @ 0x122010a50] mb I  I16..4: 35.8% 47.4% 16.8%\n",
      "[libx264 @ 0x122010a50] mb P  I16..4:  0.5%  1.1%  1.6%  P16..4:  0.7%  0.2%  0.1%  0.0%  0.0%    skip:95.9%\n",
      "[libx264 @ 0x122010a50] mb B  I16..4:  0.1%  0.1%  0.1%  B16..8:  1.2%  0.1%  0.0%  direct: 0.0%  skip:98.4%  L0:47.7% L1:51.9% BI: 0.5%\n",
      "[libx264 @ 0x122010a50] 8x8 transform intra:41.5% inter:15.9%\n",
      "[libx264 @ 0x122010a50] coded y,uvDC,uvAC intra: 21.0% 21.5% 20.4% inter: 0.1% 0.0% 0.0%\n",
      "[libx264 @ 0x122010a50] i16 v,h,dc,p: 74% 22%  4%  0%\n",
      "[libx264 @ 0x122010a50] i8 v,h,dc,ddl,ddr,vr,hd,vl,hu: 54% 13% 31%  0%  0%  0%  0%  0%  1%\n",
      "[libx264 @ 0x122010a50] i4 v,h,dc,ddl,ddr,vr,hd,vl,hu: 41% 20% 17%  2%  4%  4%  4%  3%  4%\n",
      "[libx264 @ 0x122010a50] i8c dc,h,v,p: 84%  6% 10%  0%\n",
      "[libx264 @ 0x122010a50] Weighted P-Frames: Y:0.0% UV:0.0%\n",
      "[libx264 @ 0x122010a50] ref P L0: 64.9%  4.7% 21.9%  8.6%\n",
      "[libx264 @ 0x122010a50] ref B L0: 69.4% 27.6%  3.1%\n",
      "[libx264 @ 0x122010a50] ref B L1: 94.0%  6.0%\n",
      "[libx264 @ 0x122010a50] kb/s:189.18\n",
      "[aac @ 0x122097660] Qavg: 90.966\n"
     ]
    }
   ],
   "source": [
    "file_name = compress_video('../images/video.mp4', 25 * 250)\n",
    "print(file_name)"
   ]
  },
  {
   "attachments": {},
   "cell_type": "markdown",
   "metadata": {},
   "source": [
    "Get Thumbnail"
   ]
  },
  {
   "cell_type": "code",
   "execution_count": 3,
   "metadata": {},
   "outputs": [
    {
     "name": "stderr",
     "output_type": "stream",
     "text": [
      "ffmpeg version 7.0.2 Copyright (c) 2000-2024 the FFmpeg developers\n",
      "  built with Apple clang version 15.0.0 (clang-1500.3.9.4)\n",
      "  configuration: --prefix=/opt/homebrew/Cellar/ffmpeg/7.0.2 --enable-shared --enable-pthreads --enable-version3 --cc=clang --host-cflags= --host-ldflags='-Wl,-ld_classic' --enable-ffplay --enable-gnutls --enable-gpl --enable-libaom --enable-libaribb24 --enable-libbluray --enable-libdav1d --enable-libharfbuzz --enable-libjxl --enable-libmp3lame --enable-libopus --enable-librav1e --enable-librist --enable-librubberband --enable-libsnappy --enable-libsrt --enable-libssh --enable-libsvtav1 --enable-libtesseract --enable-libtheora --enable-libvidstab --enable-libvmaf --enable-libvorbis --enable-libvpx --enable-libwebp --enable-libx264 --enable-libx265 --enable-libxml2 --enable-libxvid --enable-lzma --enable-libfontconfig --enable-libfreetype --enable-frei0r --enable-libass --enable-libopencore-amrnb --enable-libopencore-amrwb --enable-libopenjpeg --enable-libspeex --enable-libsoxr --enable-libzmq --enable-libzimg --disable-libjack --disable-indev=jack --enable-videotoolbox --enable-audiotoolbox --enable-neon\n",
      "  libavutil      59.  8.100 / 59.  8.100\n",
      "  libavcodec     61.  3.100 / 61.  3.100\n",
      "  libavformat    61.  1.100 / 61.  1.100\n",
      "  libavdevice    61.  1.100 / 61.  1.100\n",
      "  libavfilter    10.  1.100 / 10.  1.100\n",
      "  libswscale      8.  1.100 /  8.  1.100\n",
      "  libswresample   5.  1.100 /  5.  1.100\n",
      "  libpostproc    58.  1.100 / 58.  1.100\n",
      "Input #0, mov,mp4,m4a,3gp,3g2,mj2, from '../images/videocps_.mp4':\n",
      "  Metadata:\n",
      "    major_brand     : isom\n",
      "    minor_version   : 512\n",
      "    compatible_brands: isomiso2avc1mp41\n",
      "    encoder         : Lavf61.1.100\n",
      "  Duration: 00:03:33.37, start: 0.000000, bitrate: 226 kb/s\n",
      "  Stream #0:0[0x1](und): Video: h264 (High) (avc1 / 0x31637661), yuv420p(progressive), 1904x856 [SAR 1:1 DAR 238:107], 189 kb/s, 10 fps, 10 tbr, 10240 tbn (default)\n",
      "      Metadata:\n",
      "        handler_name    : VideoHandler\n",
      "        vendor_id       : [0][0][0][0]\n",
      "        encoder         : Lavc61.3.100 libx264\n",
      "  Stream #0:1[0x2](und): Audio: aac (LC) (mp4a / 0x6134706D), 44100 Hz, mono, fltp, 32 kb/s (default)\n",
      "      Metadata:\n",
      "        handler_name    : SoundHandler\n",
      "        vendor_id       : [0][0][0][0]\n",
      "Stream mapping:\n",
      "  Stream #0:0 -> #0:0 (h264 (native) -> mjpeg (native))\n",
      "Press [q] to stop, [?] for help\n",
      "[swscaler @ 0x158950000] deprecated pixel format used, make sure you did set range correctly\n",
      "Output #0, image2, to '../images/video.jpg':\n",
      "  Metadata:\n",
      "    major_brand     : isom\n",
      "    minor_version   : 512\n",
      "    compatible_brands: isomiso2avc1mp41\n",
      "    encoder         : Lavf61.1.100\n",
      "  Stream #0:0(und): Video: mjpeg, yuvj420p(pc, progressive), 1904x856 [SAR 1:1 DAR 238:107], q=2-31, 200 kb/s, 10 fps, 10 tbn (default)\n",
      "      Metadata:\n",
      "        handler_name    : VideoHandler\n",
      "        vendor_id       : [0][0][0][0]\n",
      "        encoder         : Lavc61.3.100 mjpeg\n",
      "      Side data:\n",
      "        cpb: bitrate max/min/avg: 0/0/200000 buffer size: 0 vbv_delay: N/A\n",
      "[image2 @ 0x14162e800] The specified filename '../images/video.jpg' does not contain an image sequence pattern or a pattern is invalid.\n",
      "[image2 @ 0x14162e800] Use a pattern such as %03d for an image sequence or use the -update option (with -frames:v 1 if needed) to write a single image.\n",
      "[out#0/image2 @ 0x14162e740] video:26KiB audio:0KiB subtitle:0KiB other streams:0KiB global headers:0KiB muxing overhead: unknown\n",
      "frame=    1 fps=0.0 q=5.7 Lsize=N/A time=00:00:00.10 bitrate=N/A speed=7.51x    \n"
     ]
    },
    {
     "data": {
      "text/plain": [
       "0"
      ]
     },
     "execution_count": 3,
     "metadata": {},
     "output_type": "execute_result"
    }
   ],
   "source": [
    "import subprocess\n",
    "video_input_path = '../images/videocps_.mp4'\n",
    "img_output_path = '../images/video.jpg'\n",
    "subprocess.call(['ffmpeg', '-i', video_input_path, '-ss', '00:00:00.000', '-vframes', '1', img_output_path])"
   ]
  },
  {
   "attachments": {},
   "cell_type": "markdown",
   "metadata": {},
   "source": [
    "Convert to GIF"
   ]
  },
  {
   "cell_type": "code",
   "execution_count": 2,
   "metadata": {},
   "outputs": [
    {
     "name": "stdout",
     "output_type": "stream",
     "text": [
      "MoviePy - Building file  ../images/video.gif\n",
      "MoviePy - - Generating GIF frames.\n"
     ]
    },
    {
     "name": "stderr",
     "output_type": "stream",
     "text": [
      "                                                                \r"
     ]
    },
    {
     "name": "stdout",
     "output_type": "stream",
     "text": [
      "MoviePy - - File ready: ../images/video.gif.\n"
     ]
    }
   ],
   "source": [
    "from moviepy.editor import VideoFileClip\n",
    "\n",
    "videoClip = VideoFileClip(\"../images/videocps_.mp4\")\n",
    "videoClip.write_gif(\"../images/video.gif\", fps=25,program='ffmpeg')"
   ]
  },
  {
   "cell_type": "code",
   "execution_count": null,
   "metadata": {},
   "outputs": [],
   "source": []
  }
 ],
 "metadata": {
  "kernelspec": {
   "display_name": "llm",
   "language": "python",
   "name": "python3"
  },
  "language_info": {
   "codemirror_mode": {
    "name": "ipython",
    "version": 3
   },
   "file_extension": ".py",
   "mimetype": "text/x-python",
   "name": "python",
   "nbconvert_exporter": "python",
   "pygments_lexer": "ipython3",
   "version": "3.12.3"
  },
  "orig_nbformat": 4,
  "vscode": {
   "interpreter": {
    "hash": "82e2507e369a2c04f57febbb8f4f2d78d47547386c6ceb772e5963b93e9300c2"
   }
  }
 },
 "nbformat": 4,
 "nbformat_minor": 2
}
